<svg xmlns="http://www.w3.org/2000/svg" width="30" height="30" viewBox="0 0 30 30">
  <g id="Grupo_205" data-name="Grupo 205" transform="translate(-1120 -60)">
    <path id="Caminho_223" data-name="Caminho 223" d="M30,15A15,15,0,1,1,15,0,15,15,0,0,1,30,15" transform="translate(1120 60)" fill="#fff" fill-rule="evenodd"/>
    <path id="Caminho_224" data-name="Caminho 224" d="M30.223,48.111A11.256,11.256,0,0,0,41.556,36.778c0-.172,0-.344-.011-.515A8.1,8.1,0,0,0,43.532,34.2a7.951,7.951,0,0,1-2.287.627A4,4,0,0,0,43,32.625a7.979,7.979,0,0,1-2.529.967,3.987,3.987,0,0,0-6.788,3.633,11.308,11.308,0,0,1-8.21-4.162A3.987,3.987,0,0,0,26.7,38.38a3.953,3.953,0,0,1-1.8-.5c0,.017,0,.033,0,.051a3.985,3.985,0,0,0,3.2,3.9,3.972,3.972,0,0,1-1.8.068,3.988,3.988,0,0,0,3.721,2.767,8.055,8.055,0,0,1-5.9,1.65,11.274,11.274,0,0,0,6.105,1.789" transform="translate(1101.746 35.528)" fill="#f386a4"/>
  </g>
</svg>
