<svg xmlns="http://www.w3.org/2000/svg" xmlns:xlink="http://www.w3.org/1999/xlink" width="30" height="30" viewBox="0 0 30 30">
  <defs>
    <clipPath id="clip-path">
      <rect id="Retângulo_745" data-name="Retângulo 745" width="20" height="17.172" fill="#f386a4"/>
    </clipPath>
  </defs>
  <g id="Grupo_203" data-name="Grupo 203" transform="translate(-1030 -60)">
    <circle id="Elipse_9" data-name="Elipse 9" cx="15" cy="15" r="15" transform="translate(1030 60)" fill="#fff"/>
    <g id="Grupo_43" data-name="Grupo 43" transform="translate(1035.5 66)">
      <g id="Grupo_42" data-name="Grupo 42" clip-path="url(#clip-path)">
        <path id="Caminho_219" data-name="Caminho 219" d="M19.995,11.852l-.035-.373a.135.135,0,0,0-.177-.145c-.5.016-1.055.013-1.551.052A6.011,6.011,0,0,0,15.3,12.429a7.536,7.536,0,0,1-2.416,1.506,4.594,4.594,0,0,1-.81.083c-.381.017-.763.033-1.144.045l.012-2.151a6.07,6.07,0,0,0,2.329-.727,3.852,3.852,0,0,0,1.758-4.042A6.483,6.483,0,0,0,13.5,4.468a8.516,8.516,0,0,0-.72-.773,6.983,6.983,0,0,0-.761-.6,10.514,10.514,0,0,0-1.03-.63L11,.848A.842.842,0,0,0,10.16,0h-.23a.842.842,0,0,0-.847.838l0,.824c-.313-.1-.629-.2-.944-.294a3.965,3.965,0,0,0-1.522-.217c-.063.047-.09.109-.042.171a11.329,11.329,0,0,1,1.707,2.93A6.978,6.978,0,0,1,8.72,7.592a8.8,8.8,0,0,1-2.147,4.355,6.132,6.132,0,0,0,1.454.1c.392,0,.7,0,1-.01l-.011,2.025c-.5-.019-.994-.057-1.488-.126a2.474,2.474,0,0,1-1.626-.7,2.722,2.722,0,0,1-.466-1.249S.255,11.958,0,11.976a4.04,4.04,0,0,0,.47,2.183,3.592,3.592,0,0,0,.425.5q.867.89,1.8,1.708a7.826,7.826,0,0,0,.94.735.087.087,0,0,0,.047.014l10.336.056c.132,0,.674,0,1.12-.02a1.929,1.929,0,0,0,1.063-.438,5.317,5.317,0,0,0,1.109-1.78A7.021,7.021,0,0,1,19.8,12.219a.418.418,0,0,0,.175-.164.4.4,0,0,0,.016-.2" transform="translate(0 0)" fill="#f386a4"/>
        <path id="Caminho_220" data-name="Caminho 220" d="M24.855,56.751l4.214.023a4.2,4.2,0,0,0,.782-2.482,8.126,8.126,0,0,0-.47-2.355q-.314-1-.672-1.99c-1.4,2.316-2.829,4.534-4.3,6.8.011,0,.25,0,.449,0" transform="translate(-22.814 -46.688)" fill="#f386a4"/>
      </g>
    </g>
  </g>
</svg>
