<svg xmlns="http://www.w3.org/2000/svg" width="30" height="30" viewBox="0 0 30 30">
  <g id="Grupo_204" data-name="Grupo 204" transform="translate(-1075 -60)">
    <path id="Caminho_221" data-name="Caminho 221" d="M30,15A15,15,0,1,1,15,0,15,15,0,0,1,30,15" transform="translate(1075 60)" fill="#fff" fill-rule="evenodd"/>
    <path id="Caminho_222" data-name="Caminho 222" d="M28.278,31.543a2.612,2.612,0,0,0-.3-.568.264.264,0,0,1-.06-.11c-.193-.606-3.717.734-4.266,1.078a.226.226,0,0,0-.066.065,16.8,16.8,0,0,0-2.946,8.425.207.207,0,0,0,0,.025c.037.681-.265,2.638.318,2.953a14.738,14.738,0,0,0,4.629,2.335.23.23,0,0,0,.223-.048,4.847,4.847,0,0,0,.929-1.548c.069-.151.069-.15-.086-.212a8.878,8.878,0,0,1-1.123-.523.259.259,0,0,1-.079-.083c-.064-.092-.277-.079-.139-.237.4-.327,1.507.463,2.081.513a.19.19,0,0,1,.035.006,11.83,11.83,0,0,0,8-.614.22.22,0,0,1,.144-.037.229.229,0,0,1,.076.428,10.056,10.056,0,0,1-1.243.571c-.066.025-.1.042-.055.121a7.137,7.137,0,0,0,1.01,1.565.233.233,0,0,0,.205.051,14.712,14.712,0,0,0,4.775-2.356.228.228,0,0,0,.088-.116,8.393,8.393,0,0,0,.132-2.334,15.739,15.739,0,0,0-2.88-8.708.274.274,0,0,0-.024-.029c-.8-.834-2.94-1.2-4.1-1.482a.189.189,0,0,0-.072-.005c-.335.05-.416.7-.6.959a.1.1,0,0,1-.124.074m-4.333,8.743a1.64,1.64,0,0,1-2.342-.014,2.12,2.12,0,0,1,.067-3.063c1.979-1.6,3.952,1.563,2.275,3.077m6.626-.008c-2.01,1.78-4.126-1.577-2.257-3.1,1.985-1.538,3.893,1.591,2.257,3.1" transform="translate(1059.411 36.789)" fill="#f386a4"/>
  </g>
</svg>
